<?xml version="1.0" encoding="UTF-8"?>
<!DOCTYPE svg PUBLIC "-//W3C//DTD SVG 1.1//EN" "http://www.w3.org/Graphics/SVG/1.1/DTD/svg11.dtd">
<!-- Creator: CorelDRAW -->
<svg xmlns="http://www.w3.org/2000/svg" xml:space="preserve" width="88.2587mm" height="23.5839mm" version="1.1" style="shape-rendering:geometricPrecision; text-rendering:geometricPrecision; image-rendering:optimizeQuality; fill-rule:evenodd; clip-rule:evenodd"
viewBox="0 0 3789.26 1012.54"
 xmlns:xlink="http://www.w3.org/1999/xlink"
 xmlns:xodm="http://www.corel.com/coreldraw/odm/2003">
 <defs>
  <style type="text/css">
   <![CDATA[
    .fil1 {fill:#0A1F44}
    .fil0 {fill:#E01705}
   ]]>
  </style>
 </defs>
 <g id="Capa_x0020_1">
  <metadata id="CorelCorpID_0Corel-Layer"/>
  <g id="_1674469508048">
   <path class="fil0" d="M788.45 135.45c0,-35.05 33.44,-54.74 63.2,-42.3 4.52,1.89 9.47,5.16 12.7,8.2l8.84 12.06c13.41,26.31 -0.42,65.51 -42.1,65.51 -22.24,0 -42.64,-20.51 -42.64,-43.48zm-486.62 89.46c4.04,-2.14 9.25,-3.4 13.97,-5.26 18.24,-7.22 53.53,-18.19 73.1,-24.73 47.55,-15.9 110.87,-35.22 160.43,-35.22 39.15,0 53.94,2.83 89.46,12.54 21.85,5.98 41.89,15.44 59.73,28.9 25.62,19.32 43.82,54.23 46.44,86.5 1,12.31 2.51,28.72 0.4,41.34 -4.24,25.41 -10.33,44.5 -22.39,66.24 -2.82,5.08 -5.08,9.13 -8.08,13.65 -9.07,13.66 -23.14,31.81 -34.48,43.28l-10.88 10.86c-2.41,2.23 -3.79,2.9 -6.27,5.43 -13.64,13.86 -41.83,32.22 -57.93,41.56l-18.16 9.43c-2.37,1.34 -1.97,0.33 -2.72,3.14 8.84,2.06 17.48,8.48 24.61,13.85 22.36,16.86 40.61,45.45 40.61,76.44 0,18.5 -2.89,40.11 -8.23,54.48 -4.98,13.42 -11,25.35 -18.86,37.16l-12.01 15.58c-2.61,2.96 -4.16,4.17 -6.77,7.44 -1.68,2.11 -4.9,5.3 -7.17,7.05 -5.41,4.17 -9.38,8.53 -14.94,12.66 -10.94,8.14 -21.89,15.52 -33.93,22.09 -46.97,25.64 -100.47,39.19 -157.3,39.19 -53.6,0 -96.05,-24.8 -109.17,-76.45 -1.02,-4.01 -1.67,-7.7 -2.4,-11.81 -6.97,-39.2 3.09,-90.23 10.62,-128.08 9.81,-49.31 25.28,-98.04 47.72,-142.91l40.33 -73.38c8.75,-14.55 17.14,-35.79 34.97,-41.13 17.53,-5.26 40.8,8.8 54.39,19.39 10.19,7.93 16.35,15.03 16.35,27.12 0,4.59 -36.79,57.74 -44.81,69.72 -3.27,4.89 -5.86,9.56 -8.86,14.55 -5.97,9.95 -10.39,20.19 -15.72,30.27 9.02,0 17.09,-1.19 24.5,-2.26 22.57,-3.25 45.76,-8.56 66.29,-16.49 19.39,-7.49 37.23,-16.43 54.97,-26.97 9.96,-5.92 22.96,-14.8 31.72,-22.63l14.62 -12.97c2.43,-2.43 4.3,-4.24 6.71,-6.67 1.65,-1.67 1.61,-1.76 3.06,-3.64l9.49 -11.41c8.68,-10.45 14.58,-22.36 20.54,-34.64 1.52,-3.14 2.82,-6.93 4.01,-10.21 9.82,-27.09 15.3,-75.61 -6.99,-99.41 -3.42,-3.65 -6.35,-6.6 -10.43,-9.64 -42.44,-31.61 -123.96,-16.7 -169.86,0.37 -6.01,2.23 -12.91,4.95 -19.12,7.64 -19.5,8.47 -39.32,15.69 -59.13,23.65 -13.25,5.32 -25.14,10.57 -38.45,15.89 -13.41,5.36 -25.8,11.06 -38.94,16.24l-77.74 32.63c-18.58,8.15 -38.49,15.9 -56.89,25.05 -7.8,3.88 -11.32,3.83 -16.84,10.75 -7.47,9.38 -18.15,18.82 -26.84,27.51l-109.53 110.37c-5.64,5.64 -8.2,7.95 -12.51,15.08 -5.5,9.11 -6.51,19.46 -6.51,30.28 0,24.49 24.87,43.68 42.43,61.24 43.35,43.34 87.34,86 130.43,129.6l209.03 207.36c15.08,15.25 25.49,17.34 47.03,17.34 13.12,0 24.61,-8.29 32.82,-16.51 21.36,-21.39 55.5,-53.71 74.84,-75.66 11.7,-13.28 35.98,-36 49.74,-49.75l81.11 -81.09c2.55,-2.54 3.37,-4.23 5.83,-6.72l125.01 -124.98c4.51,-4.51 7.68,-8.53 12.12,-12.96l74.83 -74.83c8.56,-8.57 16.52,-16.52 25.08,-25.08l35.16 -39.25c23.6,-35.34 21.9,-61.51 21.9,-103.52l0.84 -249.16c0,-40.11 -9.38,-63.53 -37,-88.42 -12,-10.81 -35.7,-21.95 -53.3,-21.95l-234.11 0.84c-16.88,0 -79.2,0.41 -91.32,3.16 -6.97,1.58 -12.52,2.9 -18.35,5.07 -11.12,4.13 -21.43,9.08 -31.15,15.67 -2.54,1.72 -4.22,3.15 -6.71,5 -3.01,2.25 -3.85,3.69 -6.67,5.87 -8.99,6.96 -58.66,57.96 -70.52,69.94 -2.35,2.38 -3.04,3.92 -5.4,6.31 -2.13,2.15 -3.72,3.69 -5.87,5.83l-82.78 82.78c-3.2,3.2 -22.15,20.52 -23.2,24.45z"/>
   <path class="fil0" d="M351.17 702.33c0,23.55 11.02,43.3 29.6,50.67 22.54,8.93 51.22,3.38 72.53,-4.55 23.41,-8.72 39.42,-18.59 57.82,-34.16 9,-7.62 20.31,-18.85 26.84,-28.34 17.76,-25.81 24.75,-41.81 24.75,-77.25 0,-42.41 -42.2,-67.73 -77.76,-67.73 -6.29,0 -10.77,0.95 -16.48,1.91 -26.57,4.47 -48.05,11.06 -74.31,17.66 -10.6,2.66 -8.93,-1.72 -16.55,20.24 -3.28,9.45 -6.26,17.73 -9.41,27.38 -1.61,4.94 -2.68,9.21 -4.13,14.27 -6.53,22.94 -12.9,56.21 -12.9,79.9z"/>
  </g>
  <g id="_1674469526960">
   <path class="fil1" d="M1267.23 904.05c0,-31.85 25.18,-97.17 35.27,-126.82 10.06,-29.54 18.63,-62.36 26.01,-92.69 4.83,-19.89 10.75,-34.35 1.26,-48.51l146.82 0.04c8.16,-0.01 11.45,-1.32 20.38,-1.32 -7.86,14.85 -15.47,27.16 -22.43,43.93 -5.88,14.16 -25.67,45.09 -36.22,63.34 -2.23,3.86 -3.24,6.64 -5.91,10.68l-78.57 103.95c-7.04,9.39 -39.47,44.96 -48.3,51.26 -6.51,4.65 -24.59,17.98 -33.81,9.53 -2.4,-2.21 -4.5,-8.96 -4.5,-13.38zm176.13 -377.79l-86.79 0 0 -86.79 95.72 0c20.1,0 41.45,23.18 38.89,46.54 -2.73,25 -20.56,40.25 -47.83,40.25zm-14.04 -187.62l-72.75 0 0 -86.79 77.86 0c22.3,0 42.59,22.57 40.36,45.45 -2.31,23.8 -19.94,41.35 -45.47,41.35zm-200.38 -194l0 491.39 47.23 0c-14.7,12.77 -23.27,4.44 -61.28,61.25 -3.49,5.22 -6.01,10.8 -8.92,16.61 -4.09,8.15 -12.76,27.57 -12.76,38.29 0,10.87 7.8,19.58 17.87,20.42 4.58,-6.84 4.06,-11.42 5.29,-21.51 3.18,-25.89 28.78,-72.46 49.02,-87.55 4.4,-3.28 40.13,-30.53 40.13,-14.75 0,12.7 0.21,15.18 -2.79,27.83 -4.46,18.77 -7.9,39.37 -13.34,58.13 -11.85,40.8 -21.92,68.97 -35.41,107.54 -6.44,18.4 -20.1,58.39 -10.97,75.77 5.57,10.61 20.97,20.44 28.06,20.44 10.09,0 26.58,-5.08 32.97,-9.15 16.79,-10.68 52.14,-46.39 58.68,-57.46 5.32,-9.01 14.73,-24.61 22.47,-31.14 4.02,-3.39 6.76,-6.85 9.7,-10.72 2.59,-3.4 7.08,-8.77 9.13,-12.57 3.74,-6.93 1.91,-6.65 7.75,-12.67 12.84,-13.22 20.16,-32.23 27.77,-37.33 0,12.34 -5.84,30.12 -9.14,41.91l-2.82 39.11c1.7,24.54 1.62,41.97 14.57,64.43 13.49,23.39 31.29,44.73 62.49,44.73 4.88,0 0.46,0.39 3.83,-1.28 -2.09,-7.83 -24.6,-11.21 -37.48,-36.55 -6.95,-13.67 -14.86,-39.2 -14.86,-59.18 0,-11.75 2.04,-19.32 2.56,-29.35 1.28,-24.54 6.29,-63.53 13.87,-84.41l14.19 -34.31c10.12,-19.38 17.53,-38.64 28.83,-54.13 4.9,-6.71 8.03,-12.78 12.09,-19.82 10.23,-17.73 2.59,-12.16 15.61,-17.57 6.85,-2.84 14.66,-7.28 20.6,-11.31l18.34 -14.85c52.43,-52.42 49.4,-164.38 -20.59,-202.23 -4.11,-2.22 -12.74,-6.44 -14.89,-9.37 13.49,-3.14 31.75,-25.21 39.83,-38.02 28.55,-45.26 16.11,-132.46 -30.89,-168.75 -3.4,-2.63 -6.33,-5.12 -10.02,-7.85 -26.12,-19.36 -69.41,-27.88 -103.59,-27.88l-209.32 0c-2.94,0 -3.83,0.89 -3.83,3.83z"/>
   <path class="fil1" d="M2295.95 535.19c-21.61,0 -36.44,-1.9 -52.69,-17.5 -19.83,-19.04 -24.62,-51.37 -12.01,-76.55 29.68,-59.25 123.41,-38.21 123.41,30.24 0,32.23 -28.22,63.82 -58.71,63.82zm51.05 -206.77c-3.32,-0.88 -11.96,-7.87 -17.11,-10.96 -38.06,-22.85 -93.15,-23.8 -132.24,-4.37 -9.13,4.54 -16.96,8.63 -25.27,14.29 -9.03,6.15 -9.9,7.82 -16.48,14.16 -8.42,8.12 -3.62,1.36 -14.56,14.79 -21.76,26.71 -39.39,66.07 -39.39,102.29 0,31.19 0.92,57.44 14.45,86.38 7.36,15.76 18.67,35.54 31.16,47.97 14.6,14.52 25.92,23.88 45.43,33.7 44.52,22.41 104.35,22.46 146.01,-7.58 3.01,-2.17 5.18,-4.15 8,-6.04l0 24.25 122.53 -1.28 0 -551.37 -118.7 0c-6.26,0 -3.83,14.49 -3.83,26.8l0 216.97z"/>
   <path class="fil1" d="M1814.78 786.63c6.46,3.42 13.54,13.03 17.49,19.53 15.61,25.7 16.66,66.47 12.27,95.75 -4.1,27.32 -17.7,92.2 -55.28,95.32 -1.12,-2.34 -1.77,-4.37 -3.04,-7.17 -2.96,-6.54 -1.73,-7.44 -3.52,-17.01l0.17 -17.94c0,-9.74 -2.4,0.13 0.44,-13.55 0.86,-4.15 -0.37,-7.84 0.8,-14.52 0.85,-4.82 2.14,-9.19 2.84,-13.71 0.85,-5.49 -1.95,-6.51 -0.36,-13.09 1.1,-4.56 2.18,-7.7 3.43,-13.26l6.13 -28.33c0.59,-2.99 3.3,-13.54 3.3,-14.57 0,-6.9 -2.32,-1.34 -0.53,-7.03 0.61,-1.93 1.65,-2.02 3.25,-5.56l12.6 -44.85zm38.29 -251.44c-21.63,0 -36.3,-1.5 -53.32,-18.15 -38.87,-38.03 -14.16,-110.76 45.66,-110.76 20.19,0 34.18,7.57 45.43,17.11 13.24,11.23 17.85,26.49 20.08,43.82 1.31,10.18 -1.18,17.26 -4.08,26.03 -7.5,22.71 -31.03,41.95 -53.78,41.95zm-42.12 107.21c31.28,0 23.58,-2.18 43.4,-3.83 -10.05,18.99 -41.61,84.39 -47.22,108.48 -9.07,0 -14.55,0.91 -21.69,1.28 -5.99,0.32 -19.15,-2.66 -19.15,3.83 0,5 0.35,0.22 1.75,4.63 2.04,6.43 2.01,6.63 8.97,8.99 5.34,1.81 3.17,0.79 9.64,0.48 4.16,-0.2 8.63,-0.05 12.83,-0.05 -1.09,13.03 -8.81,23.37 -11.34,35.89 -0.78,3.89 -0.73,4.81 -1.65,8.56l-4.59 14.56c-1.97,12.64 -0.08,6.22 -3.12,16.02 -1.87,6.02 -9.2,37.7 -9.28,44.04l-0.66 14.95c-2.46,13.89 -3.83,21.96 -3.83,35.74 0,5.86 0.61,5.23 -1,10.49 -1.72,5.6 0.7,9.33 1.34,15.6 0.54,5.29 0.74,12.15 2.68,18.12 4.63,14.25 11.26,32.37 28.89,32.37 26.99,0 36.55,-14.57 51,-39.62 6.72,-11.65 11.52,-28.45 15.4,-42.1l1.83 -8.12c0.74,-3.64 -0.04,-0.23 0.89,-3.13 0.08,-0.27 0.23,-0.61 0.32,-0.88l1.11 -4.04c2.21,-9.72 3.14,-20.81 2.02,-30.83l-2.04 -32.48c-0.78,-5.97 0.91,-8.32 -0.94,-13.03 -2.07,-5.27 -1.58,-9.9 -3.31,-14.57 -1.84,-4.95 -6.07,-9.25 -8.29,-14.68 -0.81,-1.99 -0.38,-1.77 -1.29,-3.82 -2.73,-6.14 -4.75,-2.09 -9,-8.87 -3.02,-4.82 -3.95,-8.26 -8.97,-10.26l-11.17 -1.52c-3.76,-1 -3.66,-1.62 -8.41,-0.51 4.54,-9.47 0.44,-19.82 11.4,-20.51l42.36 -4.73c3.92,-0.12 8.6,1.48 12.06,-2.08 5.39,-5.56 -2.92,-5.92 6.33,-9.02 7.54,-2.52 6.99,1.42 10.8,-5.79 -5.54,-3.71 -7.5,-3.11 -15.85,-1.82 -17.8,2.76 -36.18,1.72 -53.07,5.65 0.7,-8.41 7.25,-15.4 8.57,-23.33 2.29,-13.75 6,-10.54 11.02,-28.55 1.07,-3.86 1.7,-7.58 4.19,-11.12 8.91,-12.66 1.84,1.09 8.71,-16.82 2.83,-7.38 8.42,-12.99 12.46,-19.45 4.56,-7.29 14.2,-22.72 20.64,-27.86 8.84,-7.07 17.75,-14.58 24.87,-23.63 2.4,-3.06 4.91,-6.82 7.82,-8.77 3.1,11.61 29.51,31.87 40.59,38.55 39.31,23.71 97.26,19.93 97.26,8.68l0 -97c-34.77,0 -39.57,-2.59 -39.56,-39.57l0.02 -178.71c0.08,-5.9 1.71,-12.74 -3.85,-12.74l-118.7 0 0 22.97c-1.19,-0.32 -25.35,-16.17 -37,-20.44 -6.53,-2.39 -15.03,-4.81 -22.06,-6.02 -45.94,-7.91 -96.18,4.65 -129.5,37.01 -8.18,7.95 -12.91,11.27 -20.05,20.79 -22.09,29.47 -37.74,68.63 -37.74,106.5 0,5.35 0.8,4 1.22,9l2.24 28.4c5.07,31.59 19.53,61.55 39.04,84.76 25.52,30.34 67.45,53.98 110.67,53.98z"/>
   <path class="fil1" d="M3504.64 470.1c0,-36.22 29.29,-63.82 66.37,-63.82 35.56,0 63.82,28.36 63.82,67.65 0,29.37 -28.6,61.27 -58.71,61.27 -24.36,0 -35.72,-2.08 -53.93,-20.1 -10.58,-10.47 -17.54,-24.52 -17.54,-44.99zm-122.53 -8.93c0,34.24 1.76,50.88 13.67,80.78 4.01,10.05 7.96,17.76 13.38,26.19 30.71,47.83 76.34,74.27 136.32,74.27 24.59,0 48.05,-7.45 63.59,-16.82 17.12,-10.32 21.14,-14.85 32.46,-27.52 3.52,-3.94 6.17,-7.21 8.61,-11.82 4.49,3.29 14.62,22.3 42.16,38.25 20.62,11.94 59.04,23.84 86.61,15.22 3.72,-1.16 10.35,-1.85 10.35,-6.24l0 -97c-23.21,0 -39.56,2.16 -39.56,-33.18l0 -197.83 -118.7 0c-6.16,0 -3.83,11.24 -3.83,22.97 -12.11,-6.41 -15.49,-12.52 -35.9,-20.26 -42.21,-16.02 -90.25,-9.48 -126.74,12.06 -24.18,14.27 -47.11,36.05 -59.89,61.36 -11.77,23.32 -22.53,48.85 -22.53,79.58z"/>
   <path class="fil1" d="M2872.86 471.38c0,-20.13 6.23,-33.61 18.82,-46.27 24.67,-24.82 68.35,-24.6 92.59,-1.31 33.31,31.99 25.67,111.4 -48.87,111.4 -18.58,0 -34.8,-8.59 -44.37,-18.17 -10.17,-10.17 -18.17,-25.93 -18.17,-45.65zm-122.53 -10.21c0,60.03 12.64,94.54 51.36,133.7 30.57,30.92 84.4,47.53 128.6,47.53 33.28,0 58.71,-1.78 88.81,-13.3 9.81,-3.75 20.05,-8.69 28.38,-13.73 13.45,-8.15 14.34,-9.63 24.87,-18.53 11.09,-9.37 21.33,-21.93 29.24,-34.57 57.42,-91.74 18.73,-263.19 -163.64,-263.19 -68.87,0 -137.96,28.37 -169.77,91.88 -8.38,16.74 -17.85,45.26 -17.85,70.21z"/>
   <polygon class="fil1" points="3193.21,636.02 3315.74,636.02 3315.74,84.65 3193.21,84.65 "/>
   <path class="fil1" d="M2560.15 309.28l0 326.74 122.53 0 0 -330.57 -118.7 0c-2.94,0 -3.83,0.89 -3.83,3.83z"/>
   <path class="fil1" d="M2556.32 182.92c0,22.92 4.07,35.25 20.1,51.38 24.7,24.86 64.96,25.19 89.99,0 5.74,-5.78 9.25,-9.73 13.32,-17.32 32.57,-60.71 -49.83,-127.46 -102.87,-76.06 -10.96,10.62 -20.54,25.82 -20.54,42z"/>
   <path class="fil1" d="M1568.44 826.2zm0 0zm0 0c0.6,-7.2 8.48,-27.92 3.98,-34.53 -4.49,-6.62 -9.4,-8.87 -18.02,-8.87 -3.84,8.01 -0.64,16.62 -3.09,28.82 -1.94,9.63 -4.58,18.53 -7.28,27.18 -2.49,7.96 -4.69,19.72 -5.93,28.59 -1.78,12.66 4.54,17.92 13.75,20.07 1.93,-1.29 2.37,-1.54 4.21,-3.45 1.99,-2.06 2.28,-3.08 3.3,-4.36 3.25,-4.07 5.38,-3.22 8.58,-8.01 3.78,-5.63 7.52,-15.14 10.68,-21.23 2.08,-4.01 3.59,-5.4 6.16,-9.16 2.53,-3.73 4.31,-5.79 7.18,-9.42l11.16 -11.81c4.36,-4.11 0.21,-2.35 4.89,-4.04 0,26.41 -1.71,41.14 14.95,57.8 3.7,3.7 5.5,5.32 13.01,4.76 22.51,-1.67 26.66,-12.15 37.13,-19.17 0.2,9.12 9.67,23.63 22.23,26.38 8.45,1.85 12.25,-2.5 18.24,-5.05 19.53,-8.29 37.25,-31.08 47.17,-49.83 6.74,-12.74 14.54,-20.89 19.59,-30.28 15.86,-29.48 -41.83,31.04 -43.09,32.3l-19.08 16.65c-6.96,5.88 -12.35,12.37 -23.36,14.93l5.56 -33.93c1.01,-2.68 1.77,-3.31 2.79,-6.22 4.69,-13.31 12.95,-32.32 4.1,-39.94 -13.97,-12.02 -16.22,-16.03 -17.83,-3.16l-10.64 41.7c-2.1,7.66 -0.98,7.04 -5.94,11.93 -5.41,5.34 -11.77,12.56 -17.38,17.09 -3.34,2.69 -19.61,10.86 -24.47,11.26 -5.69,-11.86 1.28,-45.3 -8.05,-60.88 -2.1,-3.5 -15.64,-10.27 -24.09,-7.02 -8.11,3.11 -23.67,23.13 -30.41,30.89z"/>
   <path class="fil1" d="M1915.61 861.93c-10.63,0 -8.93,-8.81 -8.93,-21.7 0,-11.68 9.23,-36.38 15.32,-40.84 3.27,14.04 22.91,21.7 37.01,21.7 -0.51,6.14 -10.4,21.35 -15.58,26.53 -5.25,5.24 -18.04,14.31 -27.81,14.31zm25.53 -62.54c0,-10.15 8.69,-15.31 15.31,-15.31 5.92,0 6.38,18.41 6.38,24.25 -12.76,0 -21.7,2.52 -21.7,-8.93zm98.28 -16.59c0.18,-8.38 2.01,-6.38 -0.51,-16.06 -4.78,-18.31 -17.68,-15.16 -20.11,0.55 -5.17,33.33 -4.01,28.28 -16.22,32.27 -5.91,1.93 -12.97,4.74 -19.31,6.22 -0.43,-19.08 -13.79,-27.79 -30.38,-32.16 -16.19,-4.26 -4.05,-7.4 -19.4,-7.4 -7.82,0 -14.69,5.01 -19.36,8.72 -6.9,5.47 -14.67,16.62 -16.93,25.19 -4.76,18.05 -12.59,33.93 -6.05,54.38 5.5,17.22 32.96,24.8 48.72,17.64 2.99,-1.35 6.79,-2.61 9.84,-4.2 5.01,-2.61 10.2,-9.14 13.54,-13.26 2.49,-3.07 3.13,-3.9 5.48,-7.29l5.43 -8.61c1.55,-2.71 3.71,-4.88 4.53,-7.86 0.81,-2.94 -0.09,-0.61 0.52,-4.06 0.65,-3.71 0.7,-2.3 1.51,-5.77 11.01,0 21.82,-4.04 29.35,-7.66l-6.83 34.12c-2.41,14.85 8.79,24.59 14.49,24.59 6.99,0 6.23,-18.59 11.33,-32.07 6.07,-16.03 26.69,-45.93 39.41,-57.59 23.5,-21.52 15.86,-13.73 36.05,-13.73 0,-7.38 -0.6,-7.53 -8.92,-14.06 -6.39,-5.01 -5.98,-6.36 -16.61,-6.36 -6.56,0 -19.02,10.32 -22.68,14.33 -3.42,3.74 -4.37,5.77 -8.28,9.59 -1.88,1.84 -2.65,2.43 -4.21,4.73 -2.86,4.2 -0.46,2.94 -4.39,5.81z"/>
   <path class="fil1" d="M2115.99 895.12c15.3,-13.3 16.76,-17.03 27.86,-34.68 5.83,-9.27 0.49,-4.39 12.69,-19.22l14.34 -17.57c0,21.04 -10.33,34.44 2.67,50.94 3.82,4.85 7.88,7.77 16.48,7.77 2.82,0 4.05,-2.13 6.4,-3.81 10.96,-7.81 3.38,-0.22 16.89,-13.74 4.52,-4.53 17.6,-16.79 22.66,-19.47 0.4,4.81 1.27,5.13 1.33,11.44 0.18,20.9 2.48,60.04 30.58,60.04 6.23,0 7.71,0.42 11.32,-7.83 1.75,-4.01 1.45,1.88 1.45,-3.66 0,-7.87 -8.12,-0.06 -14.64,-5.73 -9.05,-7.87 -8.34,-48.43 -8.34,-61.92 -1.57,-1.05 -3.82,-2.37 -5.28,-3.66 -17.72,-15.68 -19.88,-12.15 -41.96,4.92 -7.2,5.56 -12.75,12.75 -20.41,17.88 1.02,-4.4 1.61,-9.9 2.34,-14.25 1.62,-9.72 5.13,-22.98 1.47,-35.57 -2.09,-7.2 -4.06,-2.51 -11.47,-2.51 -11.94,0 -7.46,-22.18 -35.73,17.87 -5.47,7.75 -14.6,25.03 -19.15,28.07 0.55,-6.66 5.19,-16.83 7.16,-24.75 2.32,-9.35 3.78,-17.1 5.44,-26.49 1.9,-10.78 2.62,-17.83 -7.98,-21.11 -15.62,-4.84 -9.24,5.16 -12.25,17.5 -5.83,23.92 -13.75,55.74 -16.1,79.65 -1.02,10.33 3.96,17.66 12.24,19.87z"/>
   <path class="fil1" d="M2303.61 822.37c8.96,-18.69 13.29,-38.64 44.67,-45.95 2.89,12.37 -7.53,15.86 -17.56,25.84 -4.13,4.11 -7.79,6.73 -12.52,10.45 -4.47,3.51 -8.94,8.34 -14.59,9.66zm-21.7 6.38c0,15.83 1.56,24.1 14.89,34.89 14.7,11.9 32.13,13.8 50.54,7.57 16.16,-5.47 11.08,0.69 32.34,-13.61 11.3,-7.59 25.41,-14.73 31.71,-27.06l3.25 -4.92c0.08,-0.12 0.27,-0.43 0.35,-0.55 0.08,-0.12 0.24,-0.44 0.32,-0.56 4.57,-7.25 11.45,-12.1 16.39,-17.1 4.29,-4.34 2.6,-1.82 2.08,-8.02 -8.77,5.87 -15.22,11.31 -24.97,17.14l-26.13 15.99c-16.06,9.26 -11.94,6.85 -28.59,13.53 -17.23,6.92 -18.21,8.22 -40.28,8.22 -6.33,0 -8.44,-2.99 -8.93,-8.93 2.24,-1.18 4.34,-1.97 6.8,-3.4l13.67 -8.03c5.35,-2.96 2.1,-1.2 6.02,-5.47 3.98,-4.33 4.34,-1.85 14.96,-11.85 10.34,-9.73 27.99,-21.4 21.51,-35.46 -3.88,-8.42 -23.43,-18.75 -25.95,-18.75 -14.08,0 -24.81,3.46 -32.46,13.49 -2.89,3.78 -4.92,4.99 -7.85,8.74 -2.7,3.44 -4.24,5.28 -6.74,8.57 -3.28,4.31 -3.79,4.9 -6.22,10.37 -2.89,6.51 -6.71,16.39 -6.71,25.19z"/>
   <path class="fil1" d="M2456.77 789.18c0,5.41 0.02,-0.51 1.61,4.77l5.47 14.95c8.11,23.26 8.51,18.33 16.08,38.8 6.89,18.63 6.19,11.93 6.19,33.38 0,28.91 -32.97,32.36 -39.01,16.03 -0.67,-1.82 -0.49,-2.07 -1.18,-3.92 -2.64,-7.04 -7.95,-11.91 -1.46,-26.97 2.86,-6.64 7.2,-5.5 7.2,-11.95 0,-11.52 -22.75,9.76 -24.44,12.58 -5.96,9.96 -2.46,24.28 5.08,33.58 1.85,2.28 2.76,2.87 4.77,5.44 4.84,6.21 11.41,12.76 19.29,15.17 17.41,5.32 21.87,2.38 31.16,-1.55 6.87,-2.9 9.45,-5.32 15.06,-13.02 8.67,-11.91 9.34,-35.63 4.5,-47.44l-0.55 -1.3c-3.07,-7.21 -4.18,-17.79 -10.71,-28.49 -8.95,-14.68 -14.81,-30.13 -14.81,-49 0,-12.77 16.15,-18.05 32.19,-10.49 5.58,2.63 4.85,1 8.66,2.83 0,-24.01 -40.13,-30.64 -54.95,-11.55 -10.24,13.18 -6.34,11 -8.16,19.92 -0.72,3.53 -1.99,4.42 -1.99,8.22z"/>
   <path class="fil1" d="M1712.67 744.51c3.81,0 16.59,-8.18 16.59,-17.87 0,-39.82 -44.47,-6.61 -29.08,11.21 2.01,2.33 8.72,6.66 12.49,6.66z"/>
  </g>
 </g>
</svg>
